<svg xmlns="http://www.w3.org/2000/svg" width="32" height="32" viewBox="0 0 32 32">
  <circle cx="16" cy="16" r="16" fill="#075E54"/>
  <path d="M16 5.333C10.109 5.333 5.333 10.11 5.333 16c0 2.52.7 4.88 1.917 6.89L5.333 26.667l3.777-1.917A10.614 10.614 0 0016 26.667c5.891 0 10.667-4.776 10.667-10.667S21.891 5.333 16 5.333z" fill="white"/>
  <path d="M22.296 19.176c-.396-.198-2.344-1.156-2.707-1.289-.363-.132-.628-.198-.893.199-.264.396-1.023 1.289-1.254 1.553-.23.265-.462.297-.858.1-.396-.199-1.673-.617-3.187-1.967-1.177-1.05-1.973-2.348-2.204-2.745-.23-.396-.024-.61.174-.808.178-.177.396-.462.594-.693.199-.232.264-.397.397-.662.132-.264.066-.495-.033-.693-.1-.198-.893-2.15-1.222-2.943-.322-.771-.649-.667-.893-.68-.23-.01-.495-.013-.76-.013-.264 0-.693.1-1.056.496-.363.396-1.386 1.354-1.386 3.305 0 1.95 1.42 3.834 1.617 4.1.198.264 2.794 4.266 6.77 5.982.945.408 1.683.652 2.258.834.949.302 1.813.26 2.495.158.761-.114 2.344-.958 2.674-1.884.33-.925.33-1.718.231-1.884-.1-.165-.363-.264-.76-.463z" fill="#075E54"/>
</svg>
