<svg width="48" height="48" viewBox="0 0 48 48" fill="none" xmlns="http://www.w3.org/2000/svg">
<g clip-path="url(#clip0_574_3038)">
<mask id="mask0_574_3038" style="mask-type:luminance" maskUnits="userSpaceOnUse" x="1" y="0" width="46" height="46">
<path d="M46.9805 0H1.7998V45.1765H46.9805V0Z" fill="white"/>
</mask>
<g mask="url(#mask0_574_3038)">
<path d="M21.9766 4.84529L5.13344 11.8147C4.19681 12.2023 4.20651 13.533 5.14903 13.9065L22.0624 20.6137C23.5484 21.203 25.2033 21.203 26.6894 20.6137L43.6031 13.9063C44.5453 13.533 44.5555 12.2025 43.6184 11.8149L26.7757 4.84504C25.2391 4.20921 23.5132 4.20946 21.9766 4.84529Z" fill="#FCB400"/>
<path d="M25.876 24.2835V41.0389C25.876 41.8357 26.6796 42.3818 27.4204 42.0882L46.2671 34.7727C46.4772 34.6894 46.6576 34.5448 46.7847 34.3576C46.9117 34.1707 46.9795 33.9499 46.9795 33.7237V16.9684C46.9795 16.1714 46.1759 15.6257 45.435 15.9194L26.5884 23.2348C26.3783 23.3182 26.198 23.4627 26.071 23.6498C25.9439 23.8368 25.876 24.0574 25.876 24.2835Z" fill="#18BFFF"/>
<path d="M21.4718 25.1437L15.8785 27.8443L15.3106 28.1188L3.50353 33.7762C2.75534 34.1373 1.7998 33.5918 1.7998 32.7603V17.0341C1.7998 16.7333 1.95404 16.4736 2.16087 16.2783C2.24573 16.1938 2.342 16.1216 2.44687 16.0638C2.72878 15.8945 3.13122 15.8493 3.47339 15.9846L21.3778 23.0789C22.2879 23.4399 22.3594 24.7149 21.4718 25.1437Z" fill="#F82B60"/>
<path d="M21.4681 25.1437L15.8748 27.8443L2.15723 16.278C2.2421 16.1936 2.33836 16.1215 2.44322 16.0638C2.72513 15.8945 3.12757 15.8493 3.46974 15.9846L21.3741 23.0789C22.2842 23.4399 22.3557 24.7149 21.4681 25.1437Z" fill="black" fill-opacity="0.25"/>
</g>
</g>
<defs>
<clipPath id="clip0_574_3038">
<rect width="48" height="45.1765" fill="white"/>
</clipPath>
</defs>
</svg>
