<svg width="48" height="48" viewBox="0 0 48 48" fill="none" xmlns="http://www.w3.org/2000/svg">
<g clip-path="url(#clip0_574_3006)">
<g clip-path="url(#clip1_574_3006)">
<g clip-path="url(#clip2_574_3006)">
<mask id="mask0_574_3006" style="mask-type:luminance" maskUnits="userSpaceOnUse" x="0" y="7" width="48" height="34">
<path d="M0.0107422 7.29688H47.8349V40.7035H0.0107422V7.29688Z" fill="white"/>
</mask>
<g mask="url(#mask0_574_3006)">
<path fill-rule="evenodd" clip-rule="evenodd" d="M19.8683 10.9537C21.4121 9.34663 23.5606 8.35147 25.9343 8.35147C29.0991 8.35147 31.842 10.1097 33.3189 12.7295C34.6299 12.1434 36.0499 11.8408 37.4859 11.8416C43.1826 11.8416 47.8068 16.5009 47.8068 22.2504C47.8068 27.9998 43.1826 32.6592 37.4859 32.6592C36.7897 32.6592 36.111 32.5892 35.4464 32.457C34.1541 34.7603 31.6837 36.3251 28.8705 36.3251C27.7252 36.3274 26.5945 36.0675 25.565 35.5655C24.2552 38.6425 21.2046 40.8051 17.653 40.8051C13.9431 40.8051 10.7958 38.4666 9.58262 35.1787C9.04266 35.2927 8.49228 35.3499 7.94043 35.3496C3.52724 35.3496 -0.0419922 31.7276 -0.0419922 27.2793C-0.0419922 24.2903 1.56504 21.6881 3.94922 20.2815C3.44341 19.1163 3.18306 17.8594 3.18438 16.5892C3.18438 11.4551 7.35141 7.30566 12.4855 7.30566C15.4921 7.30566 18.1822 8.73863 19.8701 10.9628" fill="#00A1E0"/>
</g>
<path fill-rule="evenodd" clip-rule="evenodd" d="M6.92787 24.6681C6.8978 24.7465 6.93859 24.7628 6.94826 24.7767C7.03811 24.8418 7.12936 24.8889 7.22079 24.9418C7.70958 25.2003 8.17024 25.2759 8.652 25.2759C9.6331 25.2759 10.2432 24.7537 10.2432 23.9133V23.8967C10.2432 23.1196 9.55398 22.8365 8.91046 22.6343L8.82624 22.6071C8.33921 22.4492 7.91899 22.3117 7.91899 21.9917V21.9753C7.91899 21.701 8.16514 21.4988 8.54492 21.4988C8.9669 21.4988 9.46976 21.6393 9.79151 21.8171C9.79151 21.8171 9.88681 21.8786 9.92145 21.7867C9.94026 21.7369 10.1043 21.2979 10.1219 21.2486C10.1405 21.1971 10.1078 21.1583 10.0742 21.1382C9.70501 20.9132 9.19512 20.7602 8.66765 20.7602L8.56971 20.7605C7.67125 20.7605 7.04356 21.3038 7.04356 22.081V22.0977C7.04356 22.917 7.73631 23.1843 8.38334 23.3689L8.48743 23.4013C8.95864 23.5461 9.36655 23.672 9.36655 24.0026V24.0191C9.36655 24.3233 9.10105 24.5501 8.67556 24.5501C8.51011 24.5501 7.98281 24.5473 7.41138 24.1861C7.34228 24.1459 7.3029 24.1169 7.24962 24.0843C7.22149 24.0673 7.15116 24.0365 7.12057 24.1286L6.92716 24.6667M21.292 24.6667C21.2619 24.7451 21.3027 24.7614 21.3127 24.7753C21.4022 24.8404 21.4938 24.8875 21.5853 24.9404C22.0741 25.1989 22.5347 25.2745 23.0165 25.2745C23.9976 25.2745 24.6077 24.7523 24.6077 23.9118V23.8953C24.6077 23.1182 23.9202 22.8351 23.2749 22.6329L23.1907 22.6056C22.7037 22.4478 22.2835 22.3103 22.2835 21.9903V21.9739C22.2835 21.6996 22.5296 21.4974 22.9094 21.4974C23.3314 21.4974 23.8325 21.6379 24.156 21.8157C24.156 21.8157 24.2513 21.8772 24.2861 21.7853C24.3047 21.7355 24.469 21.2965 24.4848 21.2472C24.5036 21.1957 24.4707 21.1569 24.4373 21.1368C24.0681 20.9118 23.5582 20.7588 23.0307 20.7588L22.9326 20.7591C22.0342 20.7591 21.4065 21.3024 21.4065 22.0796V22.0963C21.4065 22.9156 22.0992 23.1829 22.7462 23.3675L22.8501 23.3998C23.3231 23.5447 23.7293 23.6706 23.7293 24.0012V24.0177C23.7293 24.3219 23.4638 24.5487 23.0383 24.5487C22.8725 24.5487 22.3438 24.5459 21.7741 24.1847C21.705 24.1445 21.6646 24.1167 21.6122 24.0829C21.5944 24.0717 21.5116 24.0393 21.4833 24.1272L21.2899 24.6652M31.1009 23.0195C31.1009 23.4943 31.0123 23.8688 30.8389 24.1343C30.6659 24.3962 30.4046 24.5246 30.0407 24.5246C29.6767 24.5246 29.4165 24.3973 29.2459 24.136C29.0741 23.8723 28.9875 23.496 28.9875 23.0213C28.9875 22.5466 29.0747 22.1738 29.2459 21.9118C29.4161 21.6516 29.6749 21.5268 30.0407 21.5268C30.4064 21.5268 30.6666 21.6529 30.8389 21.9118C31.0133 22.1738 31.1009 22.5466 31.1009 23.0213M31.9202 22.1404C31.8395 21.8679 31.7145 21.6288 31.5475 21.4283C31.3803 21.2279 31.1694 21.0661 30.918 20.9501C30.6683 20.8332 30.373 20.7743 30.0389 20.7743C29.7048 20.7743 29.4112 20.8335 29.1598 20.9501C28.9101 21.0668 28.6974 21.2279 28.5303 21.4283C28.3636 21.6288 28.2385 21.8679 28.1576 22.1404C28.0776 22.4112 28.037 22.7066 28.037 23.0213C28.037 23.336 28.0776 23.6314 28.1576 23.9022C28.2379 24.1747 28.3633 24.4138 28.5303 24.6143C28.6975 24.8147 28.9101 24.9747 29.1598 25.089C29.4112 25.2029 29.7066 25.2609 30.0389 25.2609C30.3712 25.2609 30.6666 25.2029 30.9163 25.089C31.1659 24.9751 31.3787 24.8147 31.5457 24.6143C31.7126 24.4138 31.8376 24.1747 31.9185 23.9022C31.9983 23.6314 32.0389 23.336 32.0389 23.0213C32.0389 22.7083 31.9983 22.4112 31.9185 22.1404M38.6525 24.391C38.6256 24.3113 38.5479 24.3414 38.5479 24.3414C38.4289 24.3869 38.3018 24.4291 38.1664 24.4502C38.0299 24.4717 37.878 24.4824 37.718 24.4824C37.3224 24.4824 37.0059 24.3644 36.7809 24.1307C36.5541 23.8969 36.4275 23.5206 36.4292 23.0107C36.4305 22.5466 36.5426 22.1984 36.744 21.9312C36.9426 21.6674 37.2486 21.5303 37.653 21.5303C37.9905 21.5303 38.249 21.5695 38.5198 21.6543C38.5198 21.6543 38.584 21.6822 38.6147 21.5976C38.6866 21.399 38.7397 21.2565 38.8169 21.0385C38.8387 20.9761 38.7853 20.9497 38.7658 20.9422C38.6596 20.9007 38.4088 20.8326 38.2189 20.804C38.0414 20.7769 37.8356 20.7628 37.6036 20.7628C37.2589 20.7628 36.953 20.8217 36.691 20.9385C36.4291 21.0551 36.2075 21.2163 36.0317 21.4167C35.8559 21.6172 35.7222 21.8563 35.6326 22.1288C35.5438 22.3996 35.4989 22.6967 35.4989 23.0114C35.4989 23.6901 35.6818 24.2405 36.044 24.6431C36.4062 25.0475 36.9512 25.2514 37.6616 25.2514C38.0818 25.2514 38.5126 25.1665 38.822 25.044C38.822 25.044 38.8811 25.0155 38.8554 24.9466L38.6532 24.391M40.0862 22.5624C40.1254 22.2987 40.1977 22.0789 40.3113 21.9083C40.4813 21.6481 40.7403 21.5057 41.1042 21.5057C41.4682 21.5057 41.7091 21.6488 41.8814 21.9083C41.9956 22.0798 42.0456 22.3074 42.0642 22.5624L40.0774 22.562L40.0862 22.5624ZM42.8466 21.9822C42.7768 21.7202 42.604 21.4547 42.4915 21.3334C42.3121 21.1417 42.1381 21.0063 41.964 20.9325C41.7127 20.8256 41.4423 20.7708 41.1693 20.7713C40.8229 20.7713 40.5082 20.8298 40.2532 20.9489C39.9983 21.0688 39.7838 21.2319 39.615 21.4359C39.4464 21.6398 39.3196 21.8807 39.2387 22.1568C39.1578 22.4293 39.1171 22.7282 39.1171 23.0412C39.1171 23.3612 39.1594 23.6583 39.2428 23.9273C39.327 24.1981 39.4625 24.4354 39.6454 24.6324C39.8283 24.8311 40.0621 24.9858 40.3434 25.0948C40.623 25.2029 40.9623 25.259 41.3509 25.2578C42.1527 25.2551 42.5746 25.0767 42.7469 24.98C42.7777 24.9627 42.8067 24.933 42.7705 24.8474L42.5894 24.3393C42.5616 24.2635 42.485 24.2909 42.485 24.2909C42.2863 24.3651 42.005 24.4984 41.3456 24.4966C40.9149 24.4959 40.5966 24.3688 40.3962 24.1696C40.1922 23.9656 40.0902 23.6685 40.0744 23.2465L42.8524 23.2486C42.8524 23.2486 42.9256 23.2479 42.9331 23.1765C42.9361 23.147 43.0283 22.6069 42.8503 21.9827L42.8466 21.9822ZM17.8796 22.5624C17.9188 22.2987 17.9913 22.0789 18.1047 21.9083C18.2749 21.6481 18.5337 21.5057 18.8976 21.5057C19.2616 21.5057 19.5025 21.6488 19.6748 21.9083C19.7889 22.0798 19.8388 22.3074 19.8576 22.5624L17.8708 22.562L17.8796 22.5624ZM20.64 21.9822C20.5704 21.7202 20.3974 21.4547 20.2849 21.3334C20.1055 21.1417 19.9315 21.0063 19.7574 20.9325C19.5061 20.8256 19.2358 20.7708 18.9627 20.7713C18.6163 20.7713 18.3016 20.8298 18.0466 20.9489C17.7917 21.0688 17.5772 21.2319 17.4084 21.4359C17.2401 21.6398 17.113 21.8807 17.0321 22.1568C16.9514 22.4293 16.9108 22.7282 16.9108 23.0412C16.9108 23.3612 16.9528 23.6583 17.0367 23.9273C17.1207 24.1981 17.2565 24.4354 17.4376 24.6324C17.6204 24.8311 17.8543 24.9858 18.1356 25.0948C18.4152 25.2029 18.7527 25.259 19.1431 25.2578C19.9448 25.2551 20.3668 25.0767 20.5391 24.98C20.5697 24.9627 20.5989 24.933 20.5625 24.8474L20.3814 24.3393C20.3534 24.2635 20.2768 24.2909 20.2768 24.2909C20.0781 24.3651 19.7968 24.4984 19.1374 24.4966C18.7084 24.4959 18.3884 24.3688 18.188 24.1696C17.984 23.9656 17.8821 23.6685 17.8662 23.2465L20.6443 23.2486C20.6443 23.2486 20.7174 23.2479 20.725 23.1765C20.728 23.147 20.8201 22.6069 20.642 21.9827L20.64 21.9822ZM11.884 24.3734C11.7752 24.2865 11.76 24.2653 11.724 24.2088C11.669 24.1239 11.6408 24.0031 11.6408 23.8484C11.6408 23.6057 11.7217 23.4299 11.8887 23.3121C11.887 23.3125 12.1279 23.1046 12.694 23.1117C12.946 23.1162 13.1974 23.1376 13.4465 23.1758V24.4365H13.4469C13.4469 24.4365 13.0953 24.5123 12.6979 24.5362C12.1335 24.5701 11.8838 24.3737 11.8856 24.3743L11.884 24.3734ZM12.9882 22.4217C12.8756 22.4135 12.7297 22.4094 12.5556 22.4094C12.3183 22.4094 12.088 22.439 11.8734 22.497C11.6572 22.5554 11.462 22.6457 11.295 22.766C11.1275 22.8855 10.9897 23.0419 10.8923 23.2231C10.7941 23.406 10.744 23.6205 10.744 23.8631C10.744 24.1093 10.7867 24.322 10.8711 24.4961C10.9538 24.6688 11.0783 24.818 11.2333 24.9304C11.3875 25.0426 11.5779 25.1256 11.7977 25.1748C12.0157 25.2245 12.2618 25.2497 12.5326 25.2497C12.8174 25.2497 13.1005 25.2258 13.3748 25.1795C13.6084 25.1392 13.8411 25.094 14.0728 25.0438C14.1653 25.0225 14.268 24.9946 14.268 24.9946C14.3366 24.9772 14.3313 24.9038 14.3313 24.9038L14.3297 22.372C14.3297 21.8164 14.1813 21.4032 13.8884 21.1482C13.5965 20.8933 13.1693 20.7649 12.6154 20.7649C12.408 20.7649 12.0721 20.7931 11.8717 20.8333C11.8717 20.8333 11.2669 20.9508 11.0172 21.1463C11.0172 21.1463 10.9623 21.1801 10.9922 21.2565L11.1891 21.784C11.2136 21.8524 11.2802 21.829 11.2802 21.829C11.2802 21.829 11.3011 21.8208 11.3258 21.8062C11.8585 21.5161 12.5337 21.5249 12.5337 21.5249C12.8326 21.5249 13.0647 21.5855 13.2194 21.7042C13.3708 21.8204 13.448 21.9961 13.448 22.3653V22.4826C13.2106 22.4481 12.9908 22.4282 12.9908 22.4282L12.9882 22.4217ZM35.3178 20.9923C35.3218 20.983 35.3239 20.973 35.324 20.9629C35.3241 20.9528 35.3221 20.9428 35.3182 20.9335C35.3143 20.9242 35.3086 20.9158 35.3014 20.9087C35.2941 20.9016 35.2856 20.8961 35.2762 20.8924C35.2289 20.8745 34.9931 20.8247 34.812 20.8135C34.4639 20.7917 34.2705 20.8504 34.0964 20.9285C33.9244 21.006 33.7342 21.1307 33.6287 21.2748L33.6283 20.9373C33.6283 20.8908 33.5955 20.8534 33.5487 20.8534H32.8384C32.7923 20.8534 32.7589 20.8908 32.7589 20.9373V25.0691C32.7589 25.0914 32.7678 25.1128 32.7836 25.1286C32.7994 25.1444 32.8208 25.1533 32.8431 25.1533H33.571C33.5933 25.1533 33.6147 25.1444 33.6305 25.1286C33.6462 25.1128 33.6551 25.0914 33.6551 25.0691V22.9944C33.6551 22.7166 33.6857 22.4405 33.7467 22.2665C33.8068 22.0943 33.8886 21.957 33.9893 21.8586C34.0854 21.7635 34.203 21.6929 34.3322 21.6529C34.4534 21.6181 34.5788 21.6004 34.7049 21.6005C34.85 21.6005 35.0091 21.6377 35.0091 21.6377C35.0625 21.6437 35.0923 21.611 35.1104 21.5628C35.158 21.4361 35.2932 21.0565 35.3196 20.9809" fill="#FFFFFE"/>
<path fill-rule="evenodd" clip-rule="evenodd" d="M28.519 19.0856C28.4291 19.0584 28.3375 19.0367 28.2449 19.0205C28.1204 18.9997 27.9942 18.99 27.8679 18.9913C27.3663 18.9913 26.9709 19.1331 26.6933 19.413C26.4176 19.6908 26.23 20.114 26.1359 20.6708L26.102 20.8588H25.4723C25.4723 20.8588 25.3955 20.8556 25.3793 20.9395L25.2759 21.5162C25.2687 21.5714 25.2925 21.6058 25.3663 21.6055H25.9792L25.3574 25.0768C25.3087 25.3563 25.2529 25.5863 25.1912 25.7606C25.1304 25.9325 25.0709 26.0614 24.9978 26.1549C24.9269 26.2455 24.8598 26.3121 24.7439 26.351C24.6483 26.3832 24.5382 26.3979 24.4176 26.3979C24.3504 26.3979 24.2611 26.3867 24.1952 26.3735C24.1292 26.3605 24.0949 26.3457 24.0455 26.325C24.0455 26.325 23.9736 26.2975 23.9453 26.3696C23.9223 26.4285 23.7589 26.8778 23.7396 26.9333C23.7199 26.9882 23.7475 27.0314 23.7823 27.0439C23.8639 27.0731 23.9246 27.0917 24.0357 27.1179C24.1901 27.1543 24.3202 27.1566 24.442 27.1566C24.6973 27.1566 24.9299 27.1207 25.1228 27.0511C25.3169 26.981 25.4859 26.8588 25.6353 26.6933C25.7969 26.5149 25.8985 26.328 25.9958 26.073C26.0919 25.8203 26.1739 25.5067 26.2395 25.1411L26.8643 21.6055H27.7779C27.7779 21.6055 27.8549 21.6083 27.8709 21.5248L27.9743 20.9481C27.9815 20.8929 27.958 20.8584 27.8838 20.8588H26.9971C27.0015 20.8387 27.0418 20.5268 27.1436 20.2332C27.187 20.1078 27.2687 20.0067 27.338 19.9373C27.4027 19.8711 27.4824 19.8216 27.5703 19.7927C27.6666 19.763 27.7671 19.7485 27.8679 19.7498C27.9515 19.7498 28.0334 19.7599 28.0958 19.7729C28.1818 19.7912 28.2152 19.8008 28.2377 19.8075C28.3281 19.8351 28.3402 19.8084 28.358 19.7646L28.57 19.1823C28.5918 19.1197 28.5387 19.0933 28.519 19.0856ZM16.128 25.0842C16.128 25.1306 16.0949 25.1684 16.0485 25.1684H15.313C15.2665 25.1684 15.2334 25.1306 15.2334 25.0842V19.1645C15.2334 19.1183 15.2665 19.0808 15.313 19.0808H16.0485C16.0949 19.0808 16.128 19.1183 16.128 19.1645V25.0842Z" fill="#FFFFFE"/>
</g>
</g>
</g>
<defs>
<clipPath id="clip0_574_3006">
<rect width="48" height="48" fill="white"/>
</clipPath>
<clipPath id="clip1_574_3006">
<rect width="48" height="48" fill="white"/>
</clipPath>
<clipPath id="clip2_574_3006">
<rect width="48" height="33.5824" fill="white" transform="translate(0 7.20898)"/>
</clipPath>
</defs>
</svg>
